<?xml version="1.0" encoding="UTF-8"?>
<svg id="Layer_2" data-name="Layer 2" xmlns="http://www.w3.org/2000/svg" viewBox="0 0 570.5 526.63">
  <defs>
    <style>
      .cls-1 {
        fill: #231f20;
        stroke-width: 0px;
      }
    </style>
  </defs>
  <g id="Layer_1-2" data-name="Layer 1">
    <path class="cls-1" d="m570.5,153.61c0,84.84-68.77,153.61-153.58,153.61-24.24,0-43.91-19.66-43.91-43.91s19.66-43.88,43.91-43.88c36.35,0,65.83-29.48,65.83-65.83s-29.48-65.83-65.83-65.83-65.83,29.48-65.83,65.83v263.31c0,60.6-49.14,109.7-109.74,109.7s-109.7-49.11-109.7-109.7V153.61c0-12.11-9.82-21.95-21.95-21.95s-21.92,9.85-21.92,21.95v263.31c0,24.24-19.66,43.88-43.91,43.88S0,441.17,0,416.93V153.61C0,93.01,49.11,43.91,109.7,43.91s109.74,49.11,109.74,109.7v263.31c0,12.11,9.82,21.95,21.92,21.95s21.95-9.85,21.95-21.95V153.61C263.31,68.77,332.08,0,416.93,0s153.58,68.77,153.58,153.61Z"/>
  </g>
</svg>